# xmcd CD database file generated by MAGIX-FreeDB-MP3_Maker_14_Trial v2.0beta1
# 
# Track frame offsets:
#      150
#      15319
#      27902
#      41926
#      54879
#      68235
#      81091
#      97758
#      113165
#      127397
#      140936
#      153806
#      164670
#      182622
#      195636
#      208365
#      222476
#      234925
#      249845
#      265553
#      281869
#      298292
#      310257
#      335168
# 
# Disc length: 4723 seconds
# 
# Revision: 1 
# Processed by: cddbd v1.5.2PL0 Copyright (c) Steve Scherf et al.
# Submitted via: MAGIX-FreeDB-MP3_Maker_14_Trial v2.0beta1
# 
DISCID=6d127118
DTITLE=Hugo Strasser - Schlager Stars
DYEAR=1900
DGENRE=Oldies
TTITLE0=Hugo Strasser - Adios Amor
TTITLE1=Hugo Strasser - Ich Hätt' Getanzt Heut' Nacht
TTITLE2=Hugo Strasser - On The Street Where You Live
TTITLE3=Hugo Strasser - Ein Bisschen Frieden
TTITLE4=Hugo Strasser - Hello Again
TTITLE5=Hugo Strasser - Flieg Nicht S Hoch, Mein Kleiner Freund
TTITLE6=Hugo Strasser - Nikita
TTITLE7=Hugo Strasser - Ganz in Weiss
TTITLE8=Hugo Strasser - Eloisa
TTITLE9=Hugo Strasser - Arrivederci Claire
TTITLE10=Hugo Strasser - Guten Morgen, Sonnenschein
TTITLE11=Hugo Strasser - Spanish Eyes
TTITLE12=Hugo Strasser - Sommernacht In Rom
TTITLE13=Hugo Strasser - Mitternachtsblues
TTITLE14=Hugo Strasser - Ay Ay Ay, Maria
TTITLE15=Hugo Strasser - You Want Love (Maria Maria)
TTITLE16=Hugo Strasser - Lass Die Sonne In Dein Herz
TTITLE17=Hugo Strasser - Sempre Sempre
TTITLE18=Hugo Strasser - Die Rote Sonne Von Barbados
TTITLE19=Hugo Strasser - Atlantis Is Calling
TTITLE20=Hugo Strasser - Memory
TTITLE21=Hugo Strasser - Skandal Im Sperrbezirk
TTITLE22=Hugo Strasser - There Is A House (The House Of The Rising Sun)
TTITLE23=Hugo Strasser - Data Track
EXTD=
EXTT0=
EXTT1=
EXTT2=
EXTT3=
EXTT4=
EXTT5=
EXTT6=
EXTT7=
EXTT8=
EXTT9=
EXTT10=
EXTT11=
EXTT12=
EXTT13=
EXTT14=
EXTT15=
EXTT16=
EXTT17=
EXTT18=
EXTT19=
EXTT20=
EXTT21=
EXTT22=
EXTT23=
PLAYORDER=
